# xmcd
#
# Track frame offsets: 
#        150
#        15042
#        74899
#        95314
#        120204
#        149251
#        177570
#        194506
#        215429
#        245779
#        266553
#        294276
#
# Disc length: 4338 seconds
#
# Revision: 0
# Processed by: cddbd v1.5PL3 Copyright (c) Steve Scherf et al.
# Submitted via: ExactAudioCopy v0.95a3
#
DISCID=b110f00c
DTITLE=Dead '72 - 9-21-72 (1)
DYEAR=1972
DGENRE=Booty Bass
TTITLE0=Promised
TTITLE1=Bird Song
TTITLE2=El Paso
TTITLE3=China Cat
TTITLE4=I know you, Rider
TTITLE5=Black-throated Wind
TTITLE6=Big RR Blues
TTITLE7=Jack Straw
TTITLE8=Loser
TTITLE9=Big River
TTITLE10=Ramble on Rose
TTITLE11=Cumberland Blues
EXTD=
EXTT0=
EXTT1=
EXTT2=
EXTT3=
EXTT4=
EXTT5=
EXTT6=
EXTT7=
EXTT8=
EXTT9=
EXTT10=
EXTT11=
PLAYORDER=
